<?xml version="1.0" encoding="UTF-8"?>
<!DOCTYPE svg PUBLIC "-//W3C//DTD SVG 1.1//EN" "http://www.w3.org/Graphics/SVG/1.1/DTD/svg11.dtd">
<svg width="160mm" height="90mm" viewBox="0 0 16000 9000" version="1.1" xmlns="http://www.w3.org/2000/svg" xmlns:xlink="http://www.w3.org/1999/xlink" stroke-width="28.222" stroke-linejoin="round" xml:space="preserve">
 <path fill="rgb(255,255,255)" stroke="none" d="M 7987,8986 L -13,8986 -13,-13 15986,-13 15986,8986 7987,8986 Z"/>
 <path fill="none" stroke="rgb(179,179,179)" stroke-linejoin="round" d="M 8934,6395 L 2416,6395 2416,366 15453,366 15453,6395 8934,6395 Z"/>
 <path fill="none" stroke="rgb(179,179,179)" stroke-linejoin="round" d="M 15453,6394 L 2416,6394"/>
 <path fill="none" stroke="rgb(179,179,179)" stroke-linejoin="round" d="M 15453,5791 L 2416,5791"/>
 <path fill="none" stroke="rgb(179,179,179)" stroke-linejoin="round" d="M 15453,5188 L 2416,5188"/>
 <path fill="none" stroke="rgb(179,179,179)" stroke-linejoin="round" d="M 15453,4585 L 2416,4585"/>
 <path fill="none" stroke="rgb(179,179,179)" stroke-linejoin="round" d="M 15453,3983 L 2416,3983"/>
 <path fill="none" stroke="rgb(179,179,179)" stroke-linejoin="round" d="M 15453,3380 L 2416,3380"/>
 <path fill="none" stroke="rgb(179,179,179)" stroke-linejoin="round" d="M 15453,2777 L 2416,2777"/>
 <path fill="none" stroke="rgb(179,179,179)" stroke-linejoin="round" d="M 15453,2174 L 2416,2174"/>
 <path fill="none" stroke="rgb(179,179,179)" stroke-linejoin="round" d="M 15453,1571 L 2416,1571"/>
 <path fill="none" stroke="rgb(179,179,179)" stroke-linejoin="round" d="M 15453,968 L 2416,968"/>
 <path fill="none" stroke="rgb(179,179,179)" stroke-linejoin="round" d="M 15453,365 L 2416,365"/>
 <path fill="none" stroke="rgb(179,179,179)" stroke-linejoin="round" d="M 2416,6544 L 2416,6394"/>
 <path fill="none" stroke="rgb(179,179,179)" stroke-linejoin="round" d="M 2416,6544 L 2416,6394"/>
 <path fill="none" stroke="rgb(179,179,179)" stroke-linejoin="round" d="M 3719,6544 L 3719,6394"/>
 <path fill="none" stroke="rgb(179,179,179)" stroke-linejoin="round" d="M 3719,6544 L 3719,6394"/>
 <path fill="none" stroke="rgb(179,179,179)" stroke-linejoin="round" d="M 5023,6544 L 5023,6394"/>
 <path fill="none" stroke="rgb(179,179,179)" stroke-linejoin="round" d="M 5023,6544 L 5023,6394"/>
 <path fill="none" stroke="rgb(179,179,179)" stroke-linejoin="round" d="M 6327,6544 L 6327,6394"/>
 <path fill="none" stroke="rgb(179,179,179)" stroke-linejoin="round" d="M 6327,6544 L 6327,6394"/>
 <path fill="none" stroke="rgb(179,179,179)" stroke-linejoin="round" d="M 7631,6544 L 7631,6394"/>
 <path fill="none" stroke="rgb(179,179,179)" stroke-linejoin="round" d="M 7631,6544 L 7631,6394"/>
 <path fill="none" stroke="rgb(179,179,179)" stroke-linejoin="round" d="M 8934,6544 L 8934,6394"/>
 <path fill="none" stroke="rgb(179,179,179)" stroke-linejoin="round" d="M 8934,6544 L 8934,6394"/>
 <path fill="none" stroke="rgb(179,179,179)" stroke-linejoin="round" d="M 10237,6544 L 10237,6394"/>
 <path fill="none" stroke="rgb(179,179,179)" stroke-linejoin="round" d="M 10237,6544 L 10237,6394"/>
 <path fill="none" stroke="rgb(179,179,179)" stroke-linejoin="round" d="M 11541,6544 L 11541,6394"/>
 <path fill="none" stroke="rgb(179,179,179)" stroke-linejoin="round" d="M 11541,6544 L 11541,6394"/>
 <path fill="none" stroke="rgb(179,179,179)" stroke-linejoin="round" d="M 12845,6544 L 12845,6394"/>
 <path fill="none" stroke="rgb(179,179,179)" stroke-linejoin="round" d="M 12845,6544 L 12845,6394"/>
 <path fill="none" stroke="rgb(179,179,179)" stroke-linejoin="round" d="M 14149,6544 L 14149,6394"/>
 <path fill="none" stroke="rgb(179,179,179)" stroke-linejoin="round" d="M 14149,6544 L 14149,6394"/>
 <path fill="none" stroke="rgb(179,179,179)" stroke-linejoin="round" d="M 15453,6544 L 15453,6394"/>
 <path fill="none" stroke="rgb(179,179,179)" stroke-linejoin="round" d="M 15453,6544 L 15453,6394"/>
 <path fill="none" stroke="rgb(179,179,179)" stroke-linejoin="round" d="M 2416,6394 L 15453,6394"/>
 <path fill="none" stroke="rgb(179,179,179)" stroke-linejoin="round" d="M 2266,6394 L 2416,6394"/>
 <path fill="none" stroke="rgb(179,179,179)" stroke-linejoin="round" d="M 2266,6394 L 2416,6394"/>
 <path fill="none" stroke="rgb(179,179,179)" stroke-linejoin="round" d="M 2266,5791 L 2416,5791"/>
 <path fill="none" stroke="rgb(179,179,179)" stroke-linejoin="round" d="M 2266,5791 L 2416,5791"/>
 <path fill="none" stroke="rgb(179,179,179)" stroke-linejoin="round" d="M 2266,5188 L 2416,5188"/>
 <path fill="none" stroke="rgb(179,179,179)" stroke-linejoin="round" d="M 2266,5188 L 2416,5188"/>
 <path fill="none" stroke="rgb(179,179,179)" stroke-linejoin="round" d="M 2266,4585 L 2416,4585"/>
 <path fill="none" stroke="rgb(179,179,179)" stroke-linejoin="round" d="M 2266,4585 L 2416,4585"/>
 <path fill="none" stroke="rgb(179,179,179)" stroke-linejoin="round" d="M 2266,3983 L 2416,3983"/>
 <path fill="none" stroke="rgb(179,179,179)" stroke-linejoin="round" d="M 2266,3983 L 2416,3983"/>
 <path fill="none" stroke="rgb(179,179,179)" stroke-linejoin="round" d="M 2266,3380 L 2416,3380"/>
 <path fill="none" stroke="rgb(179,179,179)" stroke-linejoin="round" d="M 2266,3380 L 2416,3380"/>
 <path fill="none" stroke="rgb(179,179,179)" stroke-linejoin="round" d="M 2266,2777 L 2416,2777"/>
 <path fill="none" stroke="rgb(179,179,179)" stroke-linejoin="round" d="M 2266,2777 L 2416,2777"/>
 <path fill="none" stroke="rgb(179,179,179)" stroke-linejoin="round" d="M 2266,2174 L 2416,2174"/>
 <path fill="none" stroke="rgb(179,179,179)" stroke-linejoin="round" d="M 2266,2174 L 2416,2174"/>
 <path fill="none" stroke="rgb(179,179,179)" stroke-linejoin="round" d="M 2266,1571 L 2416,1571"/>
 <path fill="none" stroke="rgb(179,179,179)" stroke-linejoin="round" d="M 2266,1571 L 2416,1571"/>
 <path fill="none" stroke="rgb(179,179,179)" stroke-linejoin="round" d="M 2266,968 L 2416,968"/>
 <path fill="none" stroke="rgb(179,179,179)" stroke-linejoin="round" d="M 2266,968 L 2416,968"/>
 <path fill="none" stroke="rgb(179,179,179)" stroke-linejoin="round" d="M 2266,365 L 2416,365"/>
 <path fill="none" stroke="rgb(179,179,179)" stroke-linejoin="round" d="M 2266,365 L 2416,365"/>
 <path fill="none" stroke="rgb(179,179,179)" stroke-linejoin="round" d="M 2416,6394 L 2416,365"/>
 <path fill="rgb(0,69,134)" fill-opacity="0.502" stroke="none" d="M 3067,2437 L 3027,2436 2987,2432 2948,2425 2909,2416 2870,2404 2833,2390 2796,2374 2761,2355 2727,2334 2694,2310 2663,2285 2634,2257 2606,2228 2581,2197 2557,2164 2536,2130 2517,2095 2500,2058 2486,2020 2475,1982 2466,1943 2459,1903 2455,1863 2454,1823 2455,1783 2459,1743 2466,1704 2475,1665 2486,1626 2500,1589 2517,1552 2536,1517 2557,1483 2581,1450 2606,1419 2634,1390 2663,1362 2694,1337 2727,1313 2761,1292 2796,1273 2833,1256 2870,1242 2909,1231 2948,1222 2987,1215 3027,1211 3067,1210 3107,1211 3147,1215 3187,1222 3226,1231 3264,1242 3302,1256 3339,1273 3374,1292 3408,1313 3441,1337 3472,1362 3501,1390 3529,1419 3554,1450 3578,1483 3599,1517 3618,1552 3634,1589 3648,1626 3660,1665 3669,1704 3676,1743 3680,1783 3681,1823 3680,1863 3676,1903 3669,1943 3660,1982 3648,2020 3634,2058 3618,2095 3599,2130 3578,2164 3554,2197 3529,2228 3501,2257 3472,2285 3441,2310 3408,2334 3374,2355 3339,2374 3302,2390 3264,2404 3226,2416 3187,2425 3147,2432 3107,2436 3067,2437 3067,2437 Z"/>
 <path fill="rgb(0,69,134)" fill-opacity="0.502" stroke="none" d="M 3719,1890 L 3670,1888 3621,1884 3572,1875 3524,1864 3477,1850 3431,1833 3386,1812 3343,1789 3301,1763 3261,1734 3223,1703 3187,1669 3153,1633 3122,1595 3093,1555 3067,1513 3044,1470 3023,1425 3006,1379 2992,1332 2981,1284 2973,1235 2968,1186 2966,1136 2968,1087 2973,1038 2981,989 2992,941 3006,894 3023,848 3044,803 3067,760 3093,718 3122,678 3153,640 3187,604 3223,570 3261,539 3301,510 3343,484 3386,461 3431,440 3477,423 3524,409 3572,398 3621,390 3670,385 3719,383 3769,385 3818,390 3866,398 3914,409 3961,423 4007,440 4052,461 4096,484 4138,510 4178,539 4216,570 4252,604 4286,640 4317,678 4346,718 4372,760 4395,803 4416,848 4433,894 4447,941 4458,989 4467,1038 4471,1087 4473,1136 4471,1186 4467,1235 4458,1284 4447,1332 4433,1379 4416,1425 4395,1470 4372,1513 4346,1555 4317,1595 4286,1633 4252,1669 4216,1703 4178,1734 4138,1763 4096,1789 4052,1812 4007,1833 3961,1850 3914,1864 3866,1875 3818,1884 3769,1888 3719,1890 3719,1890 Z"/>
 <path fill="rgb(0,69,134)" fill-opacity="0.502" stroke="none" d="M 4370,4065 L 4330,4064 4290,4060 4251,4053 4212,4044 4173,4032 4136,4018 4099,4001 4063,3982 4029,3961 3996,3938 3965,3912 3936,3885 3909,3856 3884,3825 3860,3792 3839,3758 3820,3723 3803,3686 3789,3648 3778,3610 3769,3571 3762,3531 3758,3491 3757,3451 3758,3411 3762,3371 3769,3331 3778,3292 3789,3254 3803,3216 3820,3180 3839,3144 3860,3110 3884,3077 3909,3046 3936,3017 3965,2990 3996,2965 4029,2941 4063,2920 4099,2901 4136,2884 4173,2870 4212,2859 4251,2850 4290,2843 4330,2839 4370,2838 4410,2839 4450,2843 4490,2850 4529,2859 4567,2870 4605,2884 4642,2901 4677,2920 4711,2941 4744,2965 4775,2990 4804,3017 4831,3046 4857,3077 4880,3110 4901,3144 4920,3180 4937,3216 4951,3254 4963,3292 4972,3331 4979,3371 4983,3411 4984,3451 4983,3491 4979,3531 4972,3571 4963,3610 4951,3648 4937,3686 4920,3723 4901,3758 4880,3792 4857,3825 4831,3856 4804,3885 4775,3912 4744,3938 4711,3961 4677,3982 4642,4001 4605,4018 4567,4032 4529,4044 4490,4053 4450,4060 4410,4064 4370,4065 4370,4065 Z"/>
 <path fill="rgb(0,69,134)" fill-opacity="0.502" stroke="none" d="M 5023,4318 L 4980,4317 4938,4312 4896,4306 4855,4296 4814,4284 4775,4269 4736,4251 4698,4231 4662,4208 4628,4184 4595,4157 4564,4128 4535,4097 4508,4064 4484,4029 4461,3993 4441,3955 4423,3917 4408,3877 4396,3837 4386,3796 4380,3754 4375,3712 4374,3669 4375,3626 4380,3584 4386,3542 4396,3501 4408,3460 4423,3421 4441,3382 4461,3344 4484,3308 4508,3273 4535,3241 4564,3210 4595,3181 4628,3154 4662,3129 4698,3107 4736,3087 4775,3069 4814,3054 4855,3042 4896,3032 4938,3026 4980,3021 5023,3020 5066,3021 5108,3026 5150,3032 5191,3042 5231,3054 5271,3069 5310,3087 5347,3107 5383,3129 5418,3154 5451,3181 5482,3210 5511,3241 5538,3273 5562,3308 5585,3344 5605,3382 5623,3421 5638,3460 5650,3501 5660,3542 5666,3584 5671,3626 5672,3669 5671,3712 5666,3754 5660,3796 5650,3837 5638,3877 5623,3917 5605,3955 5585,3993 5562,4029 5538,4064 5511,4097 5482,4128 5451,4157 5418,4184 5383,4208 5347,4231 5310,4251 5271,4269 5231,4284 5191,4296 5150,4306 5108,4312 5066,4317 5023,4318 5023,4318 Z"/>
 <path fill="rgb(0,69,134)" fill-opacity="0.502" stroke="none" d="M 5674,5154 L 5641,5153 5609,5150 5577,5144 5545,5137 5514,5128 5484,5116 5454,5103 5425,5088 5397,5071 5371,5052 5346,5031 5322,5009 5300,4985 5279,4960 5260,4934 5243,4906 5228,4877 5215,4847 5203,4817 5194,4786 5187,4754 5181,4722 5178,4690 5177,4657 5178,4624 5181,4592 5187,4560 5194,4528 5203,4497 5215,4467 5228,4437 5243,4408 5260,4380 5279,4354 5300,4329 5322,4305 5346,4283 5371,4262 5397,4243 5425,4226 5454,4211 5484,4198 5514,4186 5545,4177 5577,4170 5609,4164 5641,4161 5674,4160 5707,4161 5739,4164 5771,4170 5803,4177 5834,4186 5864,4198 5894,4211 5923,4226 5951,4243 5977,4262 6002,4283 6026,4305 6048,4329 6069,4354 6088,4380 6105,4408 6121,4437 6134,4467 6146,4497 6155,4528 6162,4560 6168,4592 6171,4624 6172,4657 6171,4690 6168,4722 6162,4754 6155,4786 6146,4817 6134,4847 6121,4877 6105,4906 6088,4934 6069,4960 6048,4985 6026,5009 6002,5031 5977,5052 5951,5071 5923,5088 5894,5103 5864,5116 5834,5128 5803,5137 5771,5144 5739,5150 5707,5153 5674,5154 5674,5154 Z"/>
 <path fill="rgb(0,69,134)" fill-opacity="0.502" stroke="none" d="M 6327,5626 L 6299,5625 6271,5622 6243,5618 6216,5612 6190,5604 6163,5594 6138,5582 6113,5569 6089,5554 6066,5538 6045,5521 6025,5502 6005,5481 5988,5460 5972,5437 5957,5413 5944,5388 5932,5363 5922,5337 5914,5310 5908,5283 5904,5255 5901,5227 5900,5199 5901,5171 5904,5143 5908,5116 5914,5089 5922,5062 5932,5036 5944,5011 5957,4986 5972,4962 5988,4939 6005,4918 6025,4898 6045,4878 6066,4861 6089,4845 6113,4830 6138,4817 6163,4805 6190,4795 6216,4787 6243,4780 6271,4776 6299,4773 6327,4772 6355,4773 6383,4776 6410,4780 6437,4787 6464,4795 6490,4805 6515,4817 6540,4830 6564,4845 6587,4861 6608,4878 6629,4898 6648,4918 6665,4939 6681,4962 6696,4986 6709,5011 6721,5036 6731,5062 6739,5089 6746,5116 6750,5143 6753,5171 6754,5199 6753,5227 6750,5255 6746,5283 6739,5310 6731,5337 6721,5363 6709,5388 6696,5413 6681,5437 6665,5460 6648,5481 6629,5502 6608,5521 6587,5538 6564,5554 6540,5569 6515,5582 6490,5594 6464,5604 6437,5612 6410,5618 6383,5622 6355,5625 6327,5626 6327,5626 Z"/>
 <path fill="rgb(0,69,134)" fill-opacity="0.502" stroke="none" d="M 6979,5376 L 6947,5375 6916,5372 6884,5367 6854,5360 6823,5351 6794,5340 6765,5327 6737,5312 6710,5295 6684,5276 6659,5256 6636,5235 6615,5212 6595,5187 6576,5161 6559,5134 6544,5106 6531,5077 6520,5048 6511,5018 6504,4987 6499,4955 6496,4924 6495,4892 6496,4861 6499,4829 6504,4798 6511,4767 6520,4737 6531,4707 6544,4678 6559,4650 6576,4623 6595,4598 6615,4573 6636,4550 6659,4529 6684,4509 6710,4490 6737,4473 6765,4458 6794,4445 6823,4434 6854,4425 6884,4418 6916,4413 6947,4410 6979,4409 7011,4410 7042,4413 7073,4418 7104,4425 7134,4434 7164,4445 7193,4458 7221,4473 7248,4490 7273,4509 7298,4529 7321,4550 7342,4573 7362,4598 7381,4623 7398,4650 7413,4678 7426,4707 7437,4737 7446,4767 7454,4798 7459,4829 7462,4861 7463,4892 7462,4924 7459,4955 7454,4987 7446,5018 7437,5048 7426,5077 7413,5106 7398,5134 7381,5161 7362,5187 7342,5212 7321,5235 7298,5256 7273,5276 7248,5295 7221,5312 7193,5327 7164,5340 7134,5351 7104,5360 7073,5367 7042,5372 7011,5375 6979,5376 6979,5376 Z"/>
 <path fill="rgb(0,69,134)" fill-opacity="0.502" stroke="none" d="M 7631,5237 L 7598,5236 7565,5233 7533,5227 7501,5220 7469,5211 7439,5199 7409,5186 7380,5170 7352,5153 7325,5134 7300,5113 7276,5090 7253,5066 7232,5041 7213,5014 7196,4986 7180,4957 7167,4927 7155,4897 7146,4865 7139,4833 7133,4801 7130,4768 7129,4735 7130,4702 7133,4670 7139,4637 7146,4606 7155,4574 7167,4544 7180,4514 7196,4485 7213,4457 7232,4430 7253,4405 7276,4381 7300,4358 7325,4337 7352,4318 7380,4301 7409,4285 7439,4272 7469,4260 7501,4251 7533,4244 7565,4238 7598,4235 7631,4234 7664,4235 7697,4238 7729,4244 7761,4251 7792,4260 7823,4272 7853,4285 7882,4301 7910,4318 7936,4337 7962,4358 7986,4381 8008,4405 8029,4430 8048,4457 8065,4485 8081,4514 8094,4544 8106,4574 8115,4606 8122,4637 8128,4670 8131,4702 8132,4735 8131,4768 8128,4801 8122,4833 8115,4865 8106,4897 8094,4927 8081,4957 8065,4986 8048,5014 8029,5041 8008,5066 7986,5090 7962,5113 7936,5134 7910,5153 7882,5170 7853,5186 7823,5199 7792,5211 7761,5220 7729,5227 7697,5233 7664,5236 7631,5237 7631,5237 Z"/>
 <path fill="rgb(0,69,134)" fill-opacity="0.502" stroke="none" d="M 8281,5225 L 8248,5224 8215,5221 8183,5215 8151,5208 8120,5199 8089,5187 8059,5174 8030,5158 8002,5141 7976,5122 7950,5101 7927,5078 7904,5054 7883,5029 7864,5002 7847,4974 7831,4945 7818,4915 7806,4885 7797,4853 7790,4821 7784,4789 7781,4756 7780,4723 7781,4690 7784,4658 7790,4625 7797,4594 7806,4562 7818,4532 7831,4502 7847,4473 7864,4445 7883,4418 7904,4393 7927,4369 7950,4346 7976,4325 8002,4306 8030,4289 8059,4273 8089,4260 8120,4248 8151,4239 8183,4232 8215,4226 8248,4223 8281,4222 8314,4223 8347,4226 8379,4232 8411,4239 8443,4248 8473,4260 8503,4273 8532,4289 8560,4306 8587,4325 8612,4346 8636,4369 8659,4393 8680,4418 8699,4445 8716,4473 8732,4502 8745,4532 8757,4562 8766,4594 8773,4625 8779,4658 8782,4690 8783,4723 8782,4756 8779,4789 8773,4821 8766,4853 8757,4885 8745,4915 8732,4945 8716,4974 8699,5002 8680,5029 8659,5054 8636,5078 8612,5101 8587,5122 8560,5141 8532,5158 8503,5174 8473,5187 8443,5199 8411,5208 8379,5215 8347,5221 8314,5224 8281,5225 8281,5225 Z"/>
 <path fill="rgb(0,69,134)" fill-opacity="0.502" stroke="none" d="M 8934,5580 L 8903,5579 8871,5576 8841,5571 8810,5564 8781,5555 8751,5544 8723,5531 8695,5516 8669,5500 8643,5482 8619,5462 8596,5441 8575,5418 8555,5394 8537,5368 8520,5342 8505,5314 8493,5286 8482,5256 8473,5227 8465,5196 8460,5166 8457,5134 8456,5103 8457,5072 8460,5040 8465,5010 8473,4979 8482,4950 8493,4920 8505,4892 8520,4864 8537,4838 8555,4812 8575,4788 8596,4765 8619,4744 8643,4724 8669,4706 8695,4689 8723,4674 8751,4662 8781,4651 8810,4642 8841,4634 8871,4629 8903,4626 8934,4625 8965,4626 8997,4629 9027,4634 9058,4642 9087,4651 9117,4662 9145,4674 9173,4689 9199,4706 9225,4724 9249,4744 9272,4765 9293,4788 9313,4812 9331,4838 9347,4864 9362,4892 9375,4920 9386,4950 9395,4979 9402,5010 9407,5040 9410,5072 9411,5103 9410,5134 9407,5166 9402,5196 9395,5227 9386,5256 9375,5286 9362,5314 9347,5342 9331,5368 9313,5394 9293,5418 9272,5441 9249,5462 9225,5482 9199,5500 9173,5516 9145,5531 9117,5544 9087,5555 9058,5564 9027,5571 8997,5576 8965,5579 8934,5580 8934,5580 Z"/>
 <path fill="rgb(0,69,134)" fill-opacity="0.502" stroke="none" d="M 9586,5727 L 9554,5726 9523,5723 9491,5718 9460,5711 9430,5701 9400,5690 9371,5677 9343,5662 9316,5645 9290,5627 9265,5607 9242,5585 9221,5562 9201,5538 9182,5512 9165,5485 9150,5457 9137,5428 9126,5398 9117,5368 9109,5337 9104,5305 9101,5274 9100,5242 9101,5210 9104,5179 9109,5147 9117,5116 9126,5086 9137,5056 9150,5027 9165,4999 9182,4972 9201,4946 9221,4922 9242,4899 9265,4877 9290,4857 9316,4839 9343,4822 9371,4807 9400,4794 9430,4782 9460,4773 9491,4766 9523,4760 9554,4757 9586,4756 9618,4757 9649,4760 9681,4766 9712,4773 9742,4782 9772,4794 9801,4807 9829,4822 9856,4839 9882,4857 9906,4877 9929,4899 9951,4922 9971,4946 9989,4972 10006,4999 10021,5027 10034,5056 10045,5086 10055,5116 10062,5147 10067,5179 10070,5210 10071,5242 10070,5274 10067,5305 10062,5337 10055,5368 10045,5398 10034,5428 10021,5457 10006,5485 9989,5512 9971,5538 9951,5562 9929,5585 9906,5607 9882,5627 9856,5645 9829,5662 9801,5677 9772,5690 9742,5701 9712,5711 9681,5718 9649,5723 9618,5726 9586,5727 9586,5727 Z"/>
 <path fill="rgb(0,69,134)" fill-opacity="0.502" stroke="none" d="M 10237,5439 L 10206,5438 10174,5435 10143,5430 10113,5423 10083,5414 10053,5403 10025,5390 9997,5375 9970,5358 9945,5340 9920,5320 9897,5299 9876,5276 9856,5251 9838,5226 9821,5199 9806,5171 9793,5143 9782,5113 9773,5083 9765,5052 9760,5021 9757,4990 9756,4958 9757,4927 9760,4895 9765,4864 9773,4834 9782,4804 9793,4774 9806,4746 9821,4718 9838,4691 9856,4666 9876,4641 9897,4618 9920,4597 9945,4577 9970,4559 9997,4542 10025,4527 10053,4514 10083,4503 10113,4494 10143,4487 10174,4482 10206,4479 10237,4478 10269,4479 10300,4482 10331,4487 10362,4494 10392,4503 10422,4514 10450,4527 10478,4542 10505,4559 10530,4577 10555,4597 10578,4618 10599,4641 10619,4666 10637,4691 10654,4718 10669,4746 10682,4774 10693,4804 10702,4834 10709,4864 10714,4895 10717,4927 10718,4958 10717,4990 10714,5021 10709,5052 10702,5083 10693,5113 10682,5143 10669,5171 10654,5199 10637,5226 10619,5251 10599,5276 10578,5299 10555,5320 10530,5340 10505,5358 10478,5375 10450,5390 10422,5403 10392,5414 10362,5423 10331,5430 10300,5435 10269,5438 10237,5439 10237,5439 Z"/>
 <path fill="rgb(0,69,134)" fill-opacity="0.502" stroke="none" d="M 10890,5528 L 10856,5527 10823,5524 10790,5518 10758,5511 10726,5501 10695,5490 10665,5476 10635,5460 10607,5442 10580,5423 10554,5402 10530,5379 10507,5355 10486,5329 10466,5302 10449,5274 10433,5244 10419,5214 10407,5183 10398,5151 10390,5118 10384,5085 10381,5052 10380,5019 10381,4986 10384,4953 10390,4920 10398,4887 10407,4855 10419,4824 10433,4794 10449,4764 10466,4736 10486,4709 10507,4683 10530,4659 10554,4636 10580,4615 10607,4595 10635,4578 10665,4562 10695,4548 10726,4536 10758,4527 10790,4519 10823,4513 10856,4510 10890,4509 10923,4510 10956,4513 10989,4519 11022,4527 11054,4536 11085,4548 11115,4562 11145,4578 11173,4595 11200,4615 11226,4636 11250,4659 11273,4683 11294,4709 11313,4736 11331,4764 11347,4794 11361,4824 11372,4855 11382,4887 11389,4920 11395,4953 11398,4986 11399,5019 11398,5052 11395,5085 11389,5118 11382,5151 11372,5183 11361,5214 11347,5244 11331,5274 11313,5302 11294,5329 11273,5355 11250,5379 11226,5402 11200,5423 11173,5442 11145,5460 11115,5476 11085,5490 11054,5501 11022,5511 10989,5518 10956,5524 10923,5527 10890,5528 10890,5528 Z"/>
 <path fill="rgb(0,69,134)" fill-opacity="0.502" stroke="none" d="M 11541,5682 L 11511,5681 11480,5678 11450,5673 11421,5666 11392,5658 11363,5647 11336,5634 11309,5620 11283,5604 11258,5586 11235,5567 11212,5546 11192,5524 11172,5501 11155,5476 11139,5450 11125,5423 11112,5395 11101,5367 11092,5338 11085,5308 11080,5278 11077,5248 11076,5217 11077,5187 11080,5157 11085,5127 11092,5097 11101,5068 11112,5040 11125,5012 11139,4985 11155,4959 11172,4934 11192,4911 11212,4889 11235,4868 11258,4849 11283,4831 11309,4815 11336,4801 11363,4788 11392,4777 11421,4768 11450,4761 11480,4756 11511,4753 11541,4752 11572,4753 11602,4756 11632,4761 11662,4768 11691,4777 11719,4788 11747,4801 11774,4815 11800,4831 11824,4849 11848,4868 11870,4889 11891,4911 11910,4934 11928,4959 11944,4985 11958,5012 11971,5040 11982,5068 11990,5097 11997,5127 12002,5157 12005,5187 12006,5217 12005,5248 12002,5278 11997,5308 11990,5338 11982,5367 11971,5395 11958,5423 11944,5450 11928,5476 11910,5501 11891,5524 11870,5546 11848,5567 11824,5586 11800,5604 11774,5620 11747,5634 11719,5647 11691,5658 11662,5666 11632,5673 11602,5678 11572,5681 11541,5682 11541,5682 Z"/>
 <path fill="rgb(0,69,134)" fill-opacity="0.502" stroke="none" d="M 12193,5584 L 12162,5583 12132,5580 12102,5575 12072,5568 12043,5560 12014,5549 11986,5536 11959,5522 11933,5506 11908,5488 11884,5468 11861,5447 11840,5425 11821,5401 11803,5376 11787,5350 11773,5323 11760,5295 11749,5266 11740,5237 11733,5207 11728,5177 11725,5147 11724,5116 11725,5085 11728,5055 11733,5025 11740,4995 11749,4966 11760,4937 11773,4909 11787,4882 11803,4856 11821,4831 11840,4807 11861,4784 11884,4763 11908,4744 11933,4726 11959,4710 11986,4696 12014,4683 12043,4672 12072,4663 12102,4656 12132,4651 12162,4648 12193,4647 12224,4648 12254,4651 12284,4656 12314,4663 12343,4672 12372,4683 12400,4696 12427,4710 12453,4726 12478,4744 12501,4763 12524,4784 12545,4807 12564,4831 12582,4856 12598,4882 12613,4909 12626,4937 12636,4966 12645,4995 12652,5025 12657,5055 12660,5085 12661,5116 12660,5147 12657,5177 12652,5207 12645,5237 12636,5266 12626,5295 12613,5323 12598,5350 12582,5376 12564,5401 12545,5425 12524,5447 12501,5468 12478,5488 12453,5506 12427,5522 12400,5536 12372,5549 12343,5560 12314,5568 12284,5575 12254,5580 12224,5583 12193,5584 12193,5584 Z"/>
 <path fill="rgb(0,69,134)" fill-opacity="0.502" stroke="none" d="M 12845,5938 L 12820,5937 12796,5935 12772,5931 12748,5925 12724,5918 12701,5910 12679,5900 12657,5888 12636,5875 12616,5861 12597,5845 12579,5828 12562,5810 12546,5791 12532,5771 12519,5750 12507,5728 12497,5706 12488,5683 12481,5659 12475,5635 12471,5611 12469,5586 12468,5561 12469,5536 12471,5512 12475,5488 12481,5464 12488,5440 12497,5417 12507,5395 12519,5373 12532,5352 12546,5332 12562,5313 12579,5295 12597,5278 12616,5262 12636,5248 12657,5235 12679,5223 12701,5213 12724,5204 12748,5197 12772,5191 12796,5187 12820,5185 12845,5184 12870,5185 12894,5187 12919,5191 12943,5197 12966,5204 12989,5213 13012,5223 13034,5235 13055,5248 13075,5262 13094,5278 13112,5295 13129,5313 13145,5332 13159,5352 13172,5373 13184,5395 13194,5417 13202,5440 13209,5464 13215,5488 13219,5512 13221,5536 13222,5561 13221,5586 13219,5611 13215,5635 13209,5659 13202,5683 13194,5706 13184,5728 13172,5750 13159,5771 13145,5791 13129,5810 13112,5828 13094,5845 13075,5861 13055,5875 13034,5888 13012,5900 12989,5910 12966,5918 12943,5925 12919,5931 12894,5935 12870,5937 12845,5938 12845,5938 Z"/>
 <path fill="rgb(0,69,134)" fill-opacity="0.502" stroke="none" d="M 13497,6013 L 13472,6012 13447,6010 13422,6006 13398,6000 13374,5993 13350,5984 13327,5974 13305,5962 13283,5949 13263,5934 13243,5918 13225,5901 13208,5882 13192,5863 13177,5842 13164,5821 13152,5799 13142,5776 13133,5752 13125,5728 13119,5703 13115,5679 13113,5653 13112,5628 13113,5603 13115,5578 13119,5553 13125,5529 13133,5505 13142,5481 13152,5458 13164,5436 13177,5414 13192,5394 13208,5374 13225,5356 13243,5339 13263,5323 13283,5308 13305,5295 13327,5283 13350,5273 13374,5264 13398,5256 13422,5250 13447,5246 13472,5244 13497,5243 13522,5244 13548,5246 13572,5250 13597,5256 13621,5264 13645,5273 13668,5283 13690,5295 13711,5308 13732,5323 13751,5339 13770,5356 13787,5374 13803,5394 13818,5414 13831,5436 13843,5458 13853,5481 13862,5505 13869,5529 13875,5553 13879,5578 13881,5603 13882,5628 13881,5653 13879,5679 13875,5703 13869,5728 13862,5752 13853,5776 13843,5799 13831,5821 13818,5842 13803,5863 13787,5882 13770,5901 13751,5918 13732,5934 13711,5949 13690,5962 13668,5974 13645,5984 13621,5993 13597,6000 13572,6006 13548,6010 13522,6012 13497,6013 13497,6013 Z"/>
 <path fill="rgb(0,69,134)" fill-opacity="0.502" stroke="none" d="M 14149,5991 L 14124,5990 14098,5988 14073,5984 14049,5978 14025,5970 14001,5961 13978,5951 13956,5939 13934,5926 13914,5911 13894,5895 13876,5878 13858,5860 13842,5840 13827,5820 13814,5798 13802,5776 13792,5752 13783,5729 13775,5704 13769,5680 13765,5655 13763,5629 13762,5604 13763,5579 13765,5553 13769,5529 13775,5504 13783,5480 13792,5456 13802,5433 13814,5411 13827,5389 13842,5369 13858,5349 13876,5331 13894,5313 13914,5297 13934,5282 13956,5269 13978,5257 14001,5247 14025,5238 14049,5230 14073,5224 14098,5220 14124,5218 14149,5217 14174,5218 14200,5220 14225,5224 14249,5230 14274,5238 14297,5247 14321,5257 14343,5269 14364,5282 14385,5297 14404,5313 14423,5331 14440,5349 14456,5369 14471,5389 14484,5411 14496,5433 14506,5456 14515,5480 14523,5504 14529,5529 14533,5553 14535,5579 14536,5604 14535,5629 14533,5655 14529,5680 14523,5704 14515,5729 14506,5752 14496,5776 14484,5798 14471,5820 14456,5840 14440,5860 14423,5878 14404,5895 14385,5911 14364,5926 14343,5939 14321,5951 14297,5961 14274,5970 14249,5978 14225,5984 14200,5988 14174,5990 14149,5991 14149,5991 Z"/>
 <path fill="rgb(0,69,134)" fill-opacity="0.502" stroke="none" d="M 14800,5882 L 14775,5881 14750,5879 14726,5875 14702,5869 14678,5862 14655,5853 14632,5843 14610,5831 14589,5818 14568,5804 14549,5788 14531,5771 14514,5753 14498,5734 14483,5713 14470,5692 14458,5670 14448,5647 14439,5624 14432,5600 14426,5576 14422,5551 14420,5526 14419,5501 14420,5476 14422,5452 14426,5427 14432,5403 14439,5379 14448,5356 14458,5333 14470,5311 14483,5290 14498,5269 14514,5250 14531,5232 14549,5215 14568,5199 14589,5184 14610,5171 14632,5159 14655,5149 14678,5140 14702,5133 14726,5127 14750,5123 14775,5121 14800,5120 14825,5121 14850,5123 14875,5127 14899,5133 14923,5140 14946,5149 14969,5159 14991,5171 15012,5184 15032,5199 15051,5215 15070,5232 15087,5250 15102,5269 15117,5290 15130,5311 15142,5333 15152,5356 15161,5379 15168,5403 15174,5427 15178,5452 15180,5476 15181,5501 15180,5526 15178,5551 15174,5576 15168,5600 15161,5624 15152,5647 15142,5670 15130,5692 15117,5713 15102,5734 15087,5753 15070,5771 15051,5788 15032,5804 15012,5818 14991,5831 14969,5843 14946,5853 14923,5862 14899,5869 14875,5875 14850,5879 14825,5881 14800,5882 14800,5882 Z"/>
 <text class="SVGTextShape"><tspan class="TextParagraph" font-family="DejaVu Sans, sans-serif" font-size="353px" font-weight="400"><tspan class="TextPosition" x="2310" y="6962"><tspan fill="rgb(0,0,0)" stroke="none" style="white-space: pre">0</tspan></tspan></tspan></text>
 <text class="SVGTextShape"><tspan class="TextParagraph" font-family="DejaVu Sans, sans-serif" font-size="353px" font-weight="400"><tspan class="TextPosition" x="3613" y="6962"><tspan fill="rgb(0,0,0)" stroke="none" style="white-space: pre">2</tspan></tspan></tspan></text>
 <text class="SVGTextShape"><tspan class="TextParagraph" font-family="DejaVu Sans, sans-serif" font-size="353px" font-weight="400"><tspan class="TextPosition" x="4917" y="6962"><tspan fill="rgb(0,0,0)" stroke="none" style="white-space: pre">4</tspan></tspan></tspan></text>
 <text class="SVGTextShape"><tspan class="TextParagraph" font-family="DejaVu Sans, sans-serif" font-size="353px" font-weight="400"><tspan class="TextPosition" x="6221" y="6962"><tspan fill="rgb(0,0,0)" stroke="none" style="white-space: pre">6</tspan></tspan></tspan></text>
 <text class="SVGTextShape"><tspan class="TextParagraph" font-family="DejaVu Sans, sans-serif" font-size="353px" font-weight="400"><tspan class="TextPosition" x="7525" y="6962"><tspan fill="rgb(0,0,0)" stroke="none" style="white-space: pre">8</tspan></tspan></tspan></text>
 <text class="SVGTextShape"><tspan class="TextParagraph" font-family="DejaVu Sans, sans-serif" font-size="353px" font-weight="400"><tspan class="TextPosition" x="8722" y="6962"><tspan fill="rgb(0,0,0)" stroke="none" style="white-space: pre">10</tspan></tspan></tspan></text>
 <text class="SVGTextShape"><tspan class="TextParagraph" font-family="DejaVu Sans, sans-serif" font-size="353px" font-weight="400"><tspan class="TextPosition" x="10025" y="6962"><tspan fill="rgb(0,0,0)" stroke="none" style="white-space: pre">12</tspan></tspan></tspan></text>
 <text class="SVGTextShape"><tspan class="TextParagraph" font-family="DejaVu Sans, sans-serif" font-size="353px" font-weight="400"><tspan class="TextPosition" x="11329" y="6962"><tspan fill="rgb(0,0,0)" stroke="none" style="white-space: pre">14</tspan></tspan></tspan></text>
 <text class="SVGTextShape"><tspan class="TextParagraph" font-family="DejaVu Sans, sans-serif" font-size="353px" font-weight="400"><tspan class="TextPosition" x="12633" y="6962"><tspan fill="rgb(0,0,0)" stroke="none" style="white-space: pre">16</tspan></tspan></tspan></text>
 <text class="SVGTextShape"><tspan class="TextParagraph" font-family="DejaVu Sans, sans-serif" font-size="353px" font-weight="400"><tspan class="TextPosition" x="13937" y="6962"><tspan fill="rgb(0,0,0)" stroke="none" style="white-space: pre">18</tspan></tspan></tspan></text>
 <text class="SVGTextShape"><tspan class="TextParagraph" font-family="DejaVu Sans, sans-serif" font-size="353px" font-weight="400"><tspan class="TextPosition" x="15241" y="6962"><tspan fill="rgb(0,0,0)" stroke="none" style="white-space: pre">20</tspan></tspan></tspan></text>
 <text class="SVGTextShape"><tspan class="TextParagraph" font-family="DejaVu Sans, sans-serif" font-size="353px" font-weight="400"><tspan class="TextPosition" x="1954" y="6514"><tspan fill="rgb(0,0,0)" stroke="none" style="white-space: pre">0</tspan></tspan></tspan></text>
 <text class="SVGTextShape"><tspan class="TextParagraph" font-family="DejaVu Sans, sans-serif" font-size="353px" font-weight="400"><tspan class="TextPosition" x="1531" y="5911"><tspan fill="rgb(0,0,0)" stroke="none" style="white-space: pre">100</tspan></tspan></tspan></text>
 <text class="SVGTextShape"><tspan class="TextParagraph" font-family="DejaVu Sans, sans-serif" font-size="353px" font-weight="400"><tspan class="TextPosition" x="1531" y="5308"><tspan fill="rgb(0,0,0)" stroke="none" style="white-space: pre">200</tspan></tspan></tspan></text>
 <text class="SVGTextShape"><tspan class="TextParagraph" font-family="DejaVu Sans, sans-serif" font-size="353px" font-weight="400"><tspan class="TextPosition" x="1531" y="4705"><tspan fill="rgb(0,0,0)" stroke="none" style="white-space: pre">300</tspan></tspan></tspan></text>
 <text class="SVGTextShape"><tspan class="TextParagraph" font-family="DejaVu Sans, sans-serif" font-size="353px" font-weight="400"><tspan class="TextPosition" x="1531" y="4103"><tspan fill="rgb(0,0,0)" stroke="none" style="white-space: pre">400</tspan></tspan></tspan></text>
 <text class="SVGTextShape"><tspan class="TextParagraph" font-family="DejaVu Sans, sans-serif" font-size="353px" font-weight="400"><tspan class="TextPosition" x="1531" y="3500"><tspan fill="rgb(0,0,0)" stroke="none" style="white-space: pre">500</tspan></tspan></tspan></text>
 <text class="SVGTextShape"><tspan class="TextParagraph" font-family="DejaVu Sans, sans-serif" font-size="353px" font-weight="400"><tspan class="TextPosition" x="1531" y="2897"><tspan fill="rgb(0,0,0)" stroke="none" style="white-space: pre">600</tspan></tspan></tspan></text>
 <text class="SVGTextShape"><tspan class="TextParagraph" font-family="DejaVu Sans, sans-serif" font-size="353px" font-weight="400"><tspan class="TextPosition" x="1531" y="2294"><tspan fill="rgb(0,0,0)" stroke="none" style="white-space: pre">700</tspan></tspan></tspan></text>
 <text class="SVGTextShape"><tspan class="TextParagraph" font-family="DejaVu Sans, sans-serif" font-size="353px" font-weight="400"><tspan class="TextPosition" x="1531" y="1691"><tspan fill="rgb(0,0,0)" stroke="none" style="white-space: pre">800</tspan></tspan></tspan></text>
 <text class="SVGTextShape"><tspan class="TextParagraph" font-family="DejaVu Sans, sans-serif" font-size="353px" font-weight="400"><tspan class="TextPosition" x="1531" y="1088"><tspan fill="rgb(0,0,0)" stroke="none" style="white-space: pre">900</tspan></tspan></tspan></text>
 <text class="SVGTextShape"><tspan class="TextParagraph" font-family="DejaVu Sans, sans-serif" font-size="353px" font-weight="400"><tspan class="TextPosition" x="1319" y="485"><tspan fill="rgb(0,0,0)" stroke="none" style="white-space: pre">1000</tspan></tspan></tspan></text>
 <path fill="rgb(0,69,134)" fill-opacity="0.502" stroke="none" d="M 5673,8791 L 5659,8790 5646,8787 5633,8783 5620,8777 5609,8769 5598,8760 5589,8750 5582,8738 5576,8726 5572,8713 5569,8699 5568,8686 5569,8672 5572,8658 5576,8645 5582,8633 5589,8621 5598,8611 5609,8602 5620,8594 5633,8588 5646,8584 5659,8581 5673,8580 5687,8581 5701,8584 5714,8588 5726,8594 5737,8602 5748,8611 5757,8621 5765,8633 5771,8645 5775,8658 5778,8672 5779,8686 5778,8699 5775,8713 5771,8726 5765,8738 5757,8750 5748,8760 5737,8769 5726,8777 5714,8783 5701,8787 5687,8790 5673,8791 5673,8791 Z"/>
 <text class="SVGTextShape"><tspan class="TextParagraph" font-family="DejaVu Sans, sans-serif" font-size="353px" font-weight="400"><tspan class="TextPosition" x="5879" y="8805"><tspan fill="rgb(0,0,0)" stroke="none" style="white-space: pre">Standardabweichung [km]</tspan></tspan></tspan></text>
 <text class="SVGTextShape"><tspan class="TextParagraph" font-family="DejaVu Sans, sans-serif" font-size="318px" font-weight="400"><tspan class="TextPosition" x="6891" y="7608"><tspan fill="rgb(0,0,0)" stroke="none" style="white-space: pre">Anzahl Ankerknoten</tspan></tspan></tspan></text>
 <text class="SVGTextShape" transform="rotate(-90 -12820 -4523)"><tspan class="TextParagraph" font-family="DejaVu Sans, sans-serif" font-size="318px" font-weight="400"><tspan class="TextPosition" x="824" y="5244"><tspan fill="rgb(0,0,0)" stroke="none" style="white-space: pre">Mittlerer Fehler [km]</tspan></tspan></tspan></text>
</svg>