<?xml version="1.0" encoding="UTF-8"?>
<!DOCTYPE svg PUBLIC "-//W3C//DTD SVG 1.1//EN" "http://www.w3.org/Graphics/SVG/1.1/DTD/svg11.dtd">
<svg width="160mm" height="90mm" viewBox="0 0 16000 9000" version="1.1" xmlns="http://www.w3.org/2000/svg" xmlns:xlink="http://www.w3.org/1999/xlink" stroke-width="28.222" stroke-linejoin="round" xml:space="preserve">
 <path fill="rgb(255,255,255)" stroke="none" d="M 7987,8986 L -13,8986 -13,-13 15986,-13 15986,8986 7987,8986 Z"/>
 <path fill="none" stroke="rgb(179,179,179)" stroke-linejoin="round" d="M 8828,6395 L 2204,6395 2204,366 15453,366 15453,6395 8828,6395 Z"/>
 <path fill="none" stroke="rgb(179,179,179)" stroke-linejoin="round" d="M 15453,6394 L 2204,6394"/>
 <path fill="none" stroke="rgb(179,179,179)" stroke-linejoin="round" d="M 15453,5188 L 2204,5188"/>
 <path fill="none" stroke="rgb(179,179,179)" stroke-linejoin="round" d="M 15453,3983 L 2204,3983"/>
 <path fill="none" stroke="rgb(179,179,179)" stroke-linejoin="round" d="M 15453,2777 L 2204,2777"/>
 <path fill="none" stroke="rgb(179,179,179)" stroke-linejoin="round" d="M 15453,1571 L 2204,1571"/>
 <path fill="none" stroke="rgb(179,179,179)" stroke-linejoin="round" d="M 15453,365 L 2204,365"/>
 <path fill="none" stroke="rgb(179,179,179)" stroke-linejoin="round" d="M 2204,6544 L 2204,6394"/>
 <path fill="none" stroke="rgb(179,179,179)" stroke-linejoin="round" d="M 2204,6544 L 2204,6394"/>
 <path fill="none" stroke="rgb(179,179,179)" stroke-linejoin="round" d="M 4412,6544 L 4412,6394"/>
 <path fill="none" stroke="rgb(179,179,179)" stroke-linejoin="round" d="M 4412,6544 L 4412,6394"/>
 <path fill="none" stroke="rgb(179,179,179)" stroke-linejoin="round" d="M 6620,6544 L 6620,6394"/>
 <path fill="none" stroke="rgb(179,179,179)" stroke-linejoin="round" d="M 6620,6544 L 6620,6394"/>
 <path fill="none" stroke="rgb(179,179,179)" stroke-linejoin="round" d="M 8828,6544 L 8828,6394"/>
 <path fill="none" stroke="rgb(179,179,179)" stroke-linejoin="round" d="M 8828,6544 L 8828,6394"/>
 <path fill="none" stroke="rgb(179,179,179)" stroke-linejoin="round" d="M 11036,6544 L 11036,6394"/>
 <path fill="none" stroke="rgb(179,179,179)" stroke-linejoin="round" d="M 11036,6544 L 11036,6394"/>
 <path fill="none" stroke="rgb(179,179,179)" stroke-linejoin="round" d="M 13244,6544 L 13244,6394"/>
 <path fill="none" stroke="rgb(179,179,179)" stroke-linejoin="round" d="M 13244,6544 L 13244,6394"/>
 <path fill="none" stroke="rgb(179,179,179)" stroke-linejoin="round" d="M 15453,6544 L 15453,6394"/>
 <path fill="none" stroke="rgb(179,179,179)" stroke-linejoin="round" d="M 15453,6544 L 15453,6394"/>
 <path fill="none" stroke="rgb(179,179,179)" stroke-linejoin="round" d="M 2204,6394 L 15453,6394"/>
 <path fill="none" stroke="rgb(179,179,179)" stroke-linejoin="round" d="M 2054,6394 L 2204,6394"/>
 <path fill="none" stroke="rgb(179,179,179)" stroke-linejoin="round" d="M 2054,6394 L 2204,6394"/>
 <path fill="none" stroke="rgb(179,179,179)" stroke-linejoin="round" d="M 2054,5188 L 2204,5188"/>
 <path fill="none" stroke="rgb(179,179,179)" stroke-linejoin="round" d="M 2054,5188 L 2204,5188"/>
 <path fill="none" stroke="rgb(179,179,179)" stroke-linejoin="round" d="M 2054,3983 L 2204,3983"/>
 <path fill="none" stroke="rgb(179,179,179)" stroke-linejoin="round" d="M 2054,3983 L 2204,3983"/>
 <path fill="none" stroke="rgb(179,179,179)" stroke-linejoin="round" d="M 2054,2777 L 2204,2777"/>
 <path fill="none" stroke="rgb(179,179,179)" stroke-linejoin="round" d="M 2054,2777 L 2204,2777"/>
 <path fill="none" stroke="rgb(179,179,179)" stroke-linejoin="round" d="M 2054,1571 L 2204,1571"/>
 <path fill="none" stroke="rgb(179,179,179)" stroke-linejoin="round" d="M 2054,1571 L 2204,1571"/>
 <path fill="none" stroke="rgb(179,179,179)" stroke-linejoin="round" d="M 2054,365 L 2204,365"/>
 <path fill="none" stroke="rgb(179,179,179)" stroke-linejoin="round" d="M 2054,365 L 2204,365"/>
 <path fill="none" stroke="rgb(179,179,179)" stroke-linejoin="round" d="M 2204,6394 L 2204,365"/>
 <path fill="rgb(0,69,134)" fill-opacity="0.502" stroke="none" d="M 3307,2755 L 3294,2753 3281,2748 3271,2740 3263,2729 3258,2717 3256,2704 3258,2691 3263,2678 3271,2668 3281,2660 3294,2655 3307,2653 3320,2655 3332,2660 3343,2668 3351,2678 3356,2691 3358,2704 3356,2717 3351,2729 3343,2740 3332,2748 3320,2753 3307,2755 3307,2755 Z"/>
 <path fill="rgb(0,69,134)" fill-opacity="0.502" stroke="none" d="M 4411,1547 L 4373,1544 4336,1537 4300,1525 4266,1508 4234,1487 4206,1462 4181,1433 4160,1402 4143,1367 4131,1331 4123,1294 4121,1256 4123,1218 4131,1181 4143,1145 4160,1111 4181,1079 4206,1051 4234,1026 4266,1005 4300,988 4336,976 4373,968 4411,966 4449,968 4486,976 4522,988 4556,1005 4588,1026 4617,1051 4642,1079 4663,1111 4680,1145 4692,1181 4699,1218 4702,1256 4699,1294 4692,1331 4680,1367 4663,1402 4642,1433 4617,1462 4588,1487 4556,1508 4522,1525 4486,1537 4449,1544 4411,1547 4411,1547 Z"/>
 <path fill="rgb(0,69,134)" fill-opacity="0.502" stroke="none" d="M 5515,2041 L 5488,2039 5462,2034 5437,2025 5412,2013 5390,1998 5370,1980 5352,1960 5337,1938 5325,1914 5317,1888 5312,1862 5310,1835 5312,1808 5317,1782 5325,1757 5337,1733 5352,1710 5370,1690 5390,1672 5412,1657 5437,1645 5462,1637 5488,1632 5515,1630 5542,1632 5568,1637 5594,1645 5618,1657 5640,1672 5660,1690 5678,1710 5693,1733 5705,1757 5714,1782 5719,1808 5721,1835 5719,1862 5714,1888 5705,1914 5693,1938 5678,1960 5660,1980 5640,1998 5618,2013 5594,2025 5568,2034 5542,2039 5515,2041 5515,2041 Z"/>
 <path fill="rgb(0,69,134)" fill-opacity="0.502" stroke="none" d="M 6620,3188 L 6583,3187 6547,3183 6511,3177 6476,3169 6441,3158 6407,3145 6374,3130 6342,3113 6311,3094 6281,3072 6253,3049 6227,3025 6202,2998 6179,2970 6157,2941 6138,2910 6121,2878 6106,2844 6093,2810 6083,2776 6074,2740 6069,2704 6065,2668 6064,2632 6065,2595 6069,2559 6074,2523 6083,2488 6093,2453 6106,2419 6121,2386 6138,2354 6157,2323 6179,2293 6202,2265 6227,2239 6253,2214 6281,2191 6311,2169 6342,2150 6374,2133 6407,2118 6441,2105 6476,2095 6511,2086 6547,2081 6583,2077 6620,2076 6656,2077 6692,2081 6728,2086 6764,2095 6798,2105 6832,2118 6866,2133 6898,2150 6929,2169 6958,2191 6986,2214 7013,2239 7037,2265 7060,2293 7082,2323 7101,2354 7118,2386 7133,2419 7146,2453 7157,2488 7165,2523 7171,2559 7175,2595 7176,2632 7175,2668 7171,2704 7165,2740 7157,2776 7146,2810 7133,2844 7118,2878 7101,2910 7082,2941 7060,2970 7037,2998 7013,3025 6986,3049 6958,3072 6929,3094 6898,3113 6866,3130 6832,3145 6798,3158 6764,3169 6728,3177 6692,3183 6656,3187 6620,3188 6620,3188 Z"/>
 <path fill="rgb(0,69,134)" fill-opacity="0.502" stroke="none" d="M 7724,2864 L 7690,2863 7656,2860 7622,2854 7589,2846 7556,2836 7525,2824 7493,2810 7463,2794 7434,2776 7406,2756 7380,2734 7355,2711 7332,2686 7310,2660 7290,2632 7272,2603 7256,2573 7242,2542 7230,2510 7221,2477 7213,2444 7207,2410 7204,2376 7203,2342 7204,2308 7207,2274 7213,2241 7221,2208 7230,2175 7242,2143 7256,2112 7272,2082 7290,2053 7310,2025 7332,1998 7355,1973 7380,1950 7406,1929 7434,1909 7463,1891 7493,1875 7525,1861 7556,1849 7589,1839 7622,1831 7656,1825 7690,1822 7724,1821 7758,1822 7792,1825 7826,1831 7859,1839 7892,1849 7923,1861 7955,1875 7985,1891 8014,1909 8042,1929 8068,1950 8093,1973 8116,1998 8138,2025 8158,2053 8176,2082 8192,2112 8206,2143 8218,2175 8227,2208 8235,2241 8241,2274 8244,2308 8245,2342 8244,2376 8241,2410 8235,2444 8227,2477 8218,2510 8206,2542 8192,2573 8176,2603 8158,2632 8138,2660 8116,2686 8093,2711 8068,2734 8042,2756 8014,2776 7985,2794 7955,2810 7923,2824 7892,2836 7859,2846 7826,2854 7792,2860 7758,2863 7724,2864 7724,2864 Z"/>
 <path fill="rgb(0,69,134)" fill-opacity="0.502" stroke="none" d="M 8828,3467 L 8794,3466 8760,3463 8726,3457 8693,3449 8660,3439 8628,3427 8597,3413 8567,3397 8538,3379 8510,3359 8484,3337 8459,3314 8436,3289 8414,3263 8394,3235 8376,3206 8360,3176 8346,3145 8334,3113 8324,3080 8316,3047 8311,3013 8307,2979 8306,2945 8307,2911 8311,2877 8316,2844 8324,2810 8334,2778 8346,2746 8360,2714 8376,2684 8394,2655 8414,2627 8436,2601 8459,2576 8484,2553 8510,2532 8538,2512 8567,2494 8597,2478 8628,2464 8660,2452 8693,2442 8726,2434 8760,2428 8794,2425 8828,2424 8862,2425 8896,2428 8929,2434 8963,2442 8995,2452 9027,2464 9059,2478 9089,2494 9118,2512 9146,2532 9172,2553 9197,2576 9220,2601 9242,2627 9262,2655 9280,2684 9296,2714 9310,2746 9322,2778 9331,2810 9339,2844 9345,2877 9348,2911 9349,2945 9348,2979 9345,3013 9339,3047 9331,3080 9322,3113 9310,3145 9296,3176 9280,3206 9262,3235 9242,3263 9220,3289 9197,3314 9172,3337 9146,3359 9118,3379 9089,3397 9059,3413 9027,3427 8995,3439 8963,3449 8929,3457 8896,3463 8862,3466 8828,3467 8828,3467 Z"/>
 <path fill="rgb(0,69,134)" fill-opacity="0.502" stroke="none" d="M 9932,2179 L 9883,2177 9834,2173 9785,2164 9737,2153 9690,2139 9644,2122 9599,2101 9555,2078 9513,2052 9473,2023 9435,1992 9399,1958 9365,1922 9334,1884 9305,1844 9279,1802 9256,1759 9235,1714 9218,1668 9204,1621 9193,1573 9185,1524 9180,1475 9178,1425 9180,1376 9185,1327 9193,1278 9204,1230 9218,1183 9235,1137 9256,1092 9279,1049 9305,1007 9334,967 9365,929 9399,893 9435,859 9473,828 9513,799 9555,773 9599,750 9644,729 9690,712 9737,698 9785,687 9834,679 9883,674 9932,672 9981,674 10030,679 10079,687 10127,698 10174,712 10220,729 10265,750 10309,773 10351,799 10391,828 10429,859 10465,893 10498,929 10529,967 10558,1007 10584,1049 10608,1092 10628,1137 10645,1183 10660,1230 10671,1278 10679,1327 10683,1376 10685,1425 10683,1475 10679,1524 10671,1573 10660,1621 10645,1668 10628,1714 10608,1759 10584,1802 10558,1844 10529,1884 10498,1922 10465,1958 10429,1992 10391,2023 10351,2052 10309,2078 10265,2101 10220,2122 10174,2139 10127,2153 10079,2164 10030,2173 9981,2177 9932,2179 9932,2179 Z"/>
 <path fill="rgb(0,69,134)" fill-opacity="0.502" stroke="none" d="M 11035,2024 L 10989,2023 10944,2018 10899,2011 10855,2000 10812,1987 10769,1971 10728,1953 10688,1931 10649,1907 10612,1880 10577,1851 10544,1820 10513,1787 10484,1752 10457,1715 10433,1676 10411,1636 10393,1595 10377,1552 10364,1509 10353,1465 10346,1420 10341,1375 10340,1329 10341,1283 10346,1238 10353,1193 10364,1149 10377,1106 10393,1063 10411,1021 10433,981 10457,942 10484,906 10513,871 10544,838 10577,806 10612,778 10649,751 10688,727 10728,705 10769,687 10812,671 10855,658 10899,647 10944,640 10989,635 11035,634 11081,635 11126,640 11171,647 11215,658 11258,671 11301,687 11343,705 11383,727 11422,751 11458,778 11493,806 11527,838 11558,871 11586,906 11613,942 11637,981 11659,1021 11677,1063 11693,1106 11706,1149 11717,1193 11724,1238 11729,1283 11730,1329 11729,1375 11724,1420 11717,1465 11706,1509 11693,1552 11677,1595 11659,1636 11637,1676 11613,1715 11586,1752 11558,1787 11527,1820 11493,1851 11458,1880 11422,1907 11383,1931 11343,1953 11301,1971 11258,1987 11215,2000 11171,2011 11126,2018 11081,2023 11035,2024 11035,2024 Z"/>
 <path fill="rgb(0,69,134)" fill-opacity="0.502" stroke="none" d="M 12140,2639 L 12092,2637 12045,2633 11998,2625 11951,2614 11906,2600 11861,2583 11817,2564 11775,2541 11734,2516 11695,2488 11658,2458 11623,2425 11590,2390 11560,2353 11532,2314 11507,2273 11484,2231 11465,2187 11448,2143 11434,2097 11423,2051 11415,2004 11411,1956 11409,1908 11411,1860 11415,1813 11423,1766 11434,1719 11448,1674 11465,1629 11484,1585 11507,1543 11532,1502 11560,1463 11590,1427 11623,1392 11658,1359 11695,1329 11734,1301 11775,1276 11817,1253 11861,1234 11906,1217 11951,1203 11998,1192 12045,1184 12092,1180 12140,1178 12188,1180 12235,1184 12282,1192 12329,1203 12374,1217 12419,1234 12463,1253 12505,1276 12546,1301 12585,1329 12621,1359 12656,1392 12689,1427 12719,1463 12747,1502 12772,1543 12795,1585 12814,1629 12831,1674 12845,1719 12856,1766 12864,1813 12868,1860 12870,1908 12868,1956 12864,2004 12856,2051 12845,2097 12831,2143 12814,2187 12795,2231 12772,2273 12747,2314 12719,2353 12689,2390 12656,2425 12621,2458 12585,2488 12546,2516 12505,2541 12463,2564 12419,2583 12374,2600 12329,2614 12282,2625 12235,2633 12188,2637 12140,2639 12140,2639 Z"/>
 <path fill="rgb(0,69,134)" fill-opacity="0.502" stroke="none" d="M 13245,2968 L 13209,2967 13173,2963 13137,2957 13102,2949 13067,2939 13033,2926 13000,2911 12968,2894 12937,2875 12908,2853 12880,2830 12853,2806 12829,2779 12806,2751 12784,2722 12765,2691 12748,2659 12733,2626 12720,2592 12710,2557 12702,2522 12696,2486 12692,2450 12691,2414 12692,2378 12696,2342 12702,2306 12710,2271 12720,2237 12733,2203 12748,2170 12765,2138 12784,2107 12806,2077 12829,2049 12853,2023 12880,1998 12908,1975 12937,1954 12968,1935 13000,1918 13033,1903 13067,1890 13102,1880 13137,1871 13173,1866 13209,1862 13245,1861 13281,1862 13317,1866 13353,1871 13388,1880 13422,1890 13456,1903 13489,1918 13521,1935 13552,1954 13582,1975 13610,1998 13636,2023 13661,2049 13684,2077 13705,2107 13724,2138 13741,2170 13756,2203 13769,2237 13779,2271 13788,2306 13793,2342 13797,2378 13798,2414 13797,2450 13793,2486 13788,2522 13779,2557 13769,2592 13756,2626 13741,2659 13724,2691 13705,2722 13684,2751 13661,2779 13636,2806 13610,2830 13582,2853 13552,2875 13521,2894 13489,2911 13456,2926 13422,2939 13388,2949 13353,2957 13317,2963 13281,2967 13245,2968 13245,2968 Z"/>
 <path fill="rgb(0,69,134)" fill-opacity="0.502" stroke="none" d="M 14348,3238 L 14313,3237 14278,3233 14244,3228 14210,3220 14176,3209 14144,3197 14112,3183 14081,3166 14051,3147 14023,3127 13996,3105 13971,3081 13947,3056 13925,3029 13905,3001 13886,2971 13869,2940 13855,2908 13843,2875 13832,2842 13824,2808 13819,2773 13815,2739 13814,2704 13815,2669 13819,2634 13824,2600 13832,2566 13843,2532 13855,2500 13869,2468 13886,2437 13905,2407 13925,2379 13947,2352 13971,2326 13996,2302 14023,2280 14051,2260 14081,2241 14112,2224 14144,2210 14176,2198 14210,2188 14244,2180 14278,2174 14313,2171 14348,2170 14383,2171 14418,2174 14452,2180 14486,2188 14520,2198 14552,2210 14584,2224 14615,2241 14645,2260 14673,2280 14700,2302 14726,2326 14750,2352 14772,2379 14792,2407 14811,2437 14827,2468 14842,2500 14854,2532 14864,2566 14872,2600 14877,2634 14881,2669 14882,2704 14881,2739 14877,2773 14872,2808 14864,2842 14854,2875 14842,2908 14827,2940 14811,2971 14792,3001 14772,3029 14750,3056 14726,3081 14700,3105 14673,3127 14645,3147 14615,3166 14584,3183 14552,3197 14520,3209 14486,3220 14452,3228 14418,3233 14383,3237 14348,3238 14348,3238 Z"/>
 <text class="SVGTextShape"><tspan class="TextParagraph" font-family="DejaVu Sans, sans-serif" font-size="353px" font-weight="400"><tspan class="TextPosition" x="2098" y="6962"><tspan fill="rgb(0,0,0)" stroke="none" style="white-space: pre">0</tspan></tspan></tspan></text>
 <text class="SVGTextShape"><tspan class="TextParagraph" font-family="DejaVu Sans, sans-serif" font-size="353px" font-weight="400"><tspan class="TextPosition" x="4306" y="6962"><tspan fill="rgb(0,0,0)" stroke="none" style="white-space: pre">2</tspan></tspan></tspan></text>
 <text class="SVGTextShape"><tspan class="TextParagraph" font-family="DejaVu Sans, sans-serif" font-size="353px" font-weight="400"><tspan class="TextPosition" x="6514" y="6962"><tspan fill="rgb(0,0,0)" stroke="none" style="white-space: pre">4</tspan></tspan></tspan></text>
 <text class="SVGTextShape"><tspan class="TextParagraph" font-family="DejaVu Sans, sans-serif" font-size="353px" font-weight="400"><tspan class="TextPosition" x="8722" y="6962"><tspan fill="rgb(0,0,0)" stroke="none" style="white-space: pre">6</tspan></tspan></tspan></text>
 <text class="SVGTextShape"><tspan class="TextParagraph" font-family="DejaVu Sans, sans-serif" font-size="353px" font-weight="400"><tspan class="TextPosition" x="10930" y="6962"><tspan fill="rgb(0,0,0)" stroke="none" style="white-space: pre">8</tspan></tspan></tspan></text>
 <text class="SVGTextShape"><tspan class="TextParagraph" font-family="DejaVu Sans, sans-serif" font-size="353px" font-weight="400"><tspan class="TextPosition" x="13032" y="6962"><tspan fill="rgb(0,0,0)" stroke="none" style="white-space: pre">10</tspan></tspan></tspan></text>
 <text class="SVGTextShape"><tspan class="TextParagraph" font-family="DejaVu Sans, sans-serif" font-size="353px" font-weight="400"><tspan class="TextPosition" x="15241" y="6962"><tspan fill="rgb(0,0,0)" stroke="none" style="white-space: pre">12</tspan></tspan></tspan></text>
 <text class="SVGTextShape"><tspan class="TextParagraph" font-family="DejaVu Sans, sans-serif" font-size="353px" font-weight="400"><tspan class="TextPosition" x="1742" y="6514"><tspan fill="rgb(0,0,0)" stroke="none" style="white-space: pre">0</tspan></tspan></tspan></text>
 <text class="SVGTextShape"><tspan class="TextParagraph" font-family="DejaVu Sans, sans-serif" font-size="353px" font-weight="400"><tspan class="TextPosition" x="1531" y="5308"><tspan fill="rgb(0,0,0)" stroke="none" style="white-space: pre">50</tspan></tspan></tspan></text>
 <text class="SVGTextShape"><tspan class="TextParagraph" font-family="DejaVu Sans, sans-serif" font-size="353px" font-weight="400"><tspan class="TextPosition" x="1319" y="4103"><tspan fill="rgb(0,0,0)" stroke="none" style="white-space: pre">100</tspan></tspan></tspan></text>
 <text class="SVGTextShape"><tspan class="TextParagraph" font-family="DejaVu Sans, sans-serif" font-size="353px" font-weight="400"><tspan class="TextPosition" x="1319" y="2897"><tspan fill="rgb(0,0,0)" stroke="none" style="white-space: pre">150</tspan></tspan></tspan></text>
 <text class="SVGTextShape"><tspan class="TextParagraph" font-family="DejaVu Sans, sans-serif" font-size="353px" font-weight="400"><tspan class="TextPosition" x="1319" y="1691"><tspan fill="rgb(0,0,0)" stroke="none" style="white-space: pre">200</tspan></tspan></tspan></text>
 <text class="SVGTextShape"><tspan class="TextParagraph" font-family="DejaVu Sans, sans-serif" font-size="353px" font-weight="400"><tspan class="TextPosition" x="1319" y="485"><tspan fill="rgb(0,0,0)" stroke="none" style="white-space: pre">250</tspan></tspan></tspan></text>
 <path fill="rgb(0,69,134)" fill-opacity="0.502" stroke="none" d="M 5673,8791 L 5659,8790 5646,8787 5633,8783 5620,8777 5609,8769 5598,8760 5589,8750 5582,8738 5576,8726 5572,8713 5569,8699 5568,8686 5569,8672 5572,8658 5576,8645 5582,8633 5589,8621 5598,8611 5609,8602 5620,8594 5633,8588 5646,8584 5659,8581 5673,8580 5687,8581 5701,8584 5714,8588 5726,8594 5737,8602 5748,8611 5757,8621 5765,8633 5771,8645 5775,8658 5778,8672 5779,8686 5778,8699 5775,8713 5771,8726 5765,8738 5757,8750 5748,8760 5737,8769 5726,8777 5714,8783 5701,8787 5687,8790 5673,8791 5673,8791 Z"/>
 <text class="SVGTextShape"><tspan class="TextParagraph" font-family="DejaVu Sans, sans-serif" font-size="353px" font-weight="400"><tspan class="TextPosition" x="5879" y="8805"><tspan fill="rgb(0,0,0)" stroke="none" style="white-space: pre">Standardabweichung [km]</tspan></tspan></tspan></text>
 <text class="SVGTextShape"><tspan class="TextParagraph" font-family="DejaVu Sans, sans-serif" font-size="318px" font-weight="400"><tspan class="TextPosition" x="7076" y="7608"><tspan fill="rgb(0,0,0)" stroke="none" style="white-space: pre">Anzahl Zielknoten</tspan></tspan></tspan></text>
 <text class="SVGTextShape" transform="rotate(-90 -11699 -2505)"><tspan class="TextParagraph" font-family="DejaVu Sans, sans-serif" font-size="318px" font-weight="400"><tspan class="TextPosition" x="824" y="5244"><tspan fill="rgb(0,0,0)" stroke="none" style="white-space: pre">Mittlerer Fehler [km]</tspan></tspan></tspan></text>
</svg>